<svg id="Layer_1" height="512" viewBox="0 0 512 512" width="512" xmlns="http://www.w3.org/2000/svg"><g fill="rgb(0,0,0)"><path d="m463.211 273.066c4.142 0 7.5-3.358 7.5-7.5v-25.101c0-34.58-28.038-62.713-62.5-62.713h-19.094v-16.864c25.489-16.184 35.397-52.373 21.086-79.241-13.531-25.402-45.972-37.373-72.777-28.248-7.296-14.274-21.391-25.138-37.129-28.031-15.292-2.81-31.785 1.967-43.592 12.101-2.014-2.452-4.158-4.818-6.417-7.08-2.928-2.93-7.677-2.933-10.606-.006-2.931 2.927-2.933 7.676-.006 10.606 3.77 3.774 7.154 7.881 10.06 12.208 1.337 1.992 3.547 3.224 5.944 3.314 2.4.093 4.694-.972 6.177-2.857 8.264-10.503 22.622-15.941 35.73-13.534 13.115 2.41 24.63 12.609 28.653 25.379.666 2.112 2.23 3.822 4.276 4.672 2.044.85 4.36.752 6.328-.267 20.555-10.646 49.211-1.692 60.121 18.792 10.922 20.506 2.42 49.434-17.838 60.693-.612.34-1.152.759-1.627 1.228h-270.73c-4.142 0-7.5 3.358-7.5 7.5v3.882c-11.591 2.551-24.507-1.021-32.896-9.505-9.651-9.759-12.802-25.48-7.662-38.231 5.134-12.737 18.271-21.826 31.947-22.102 3.777-.076 6.908-2.95 7.307-6.707s-2.059-7.224-5.736-8.091c-2.169-.512-3.414-2.519-3.963-3.67-1.346-2.823-1.428-6.281-.208-8.81 3.098-6.423 11.1-9.017 17.012-9.287 8.211-.379 16.76 2.402 25.031 5.088 3.077.999 6.448-.088 8.363-2.696 1.914-2.608 1.939-6.15.063-8.787-4.715-6.624-1.938-16.818 3.34-22.464 7.104-7.601 18.375-10.304 26.579-11.234 14.17-1.606 28.964.622 42.786 6.44 3.816 1.608 8.215-.185 9.822-4.002s-.184-8.215-4.002-9.822c-16.184-6.814-33.577-9.417-50.294-7.521-15.578 1.765-27.639 7.113-35.848 15.895-6.819 7.294-10.178 16.885-9.763 25.934-5.355-1.265-10.971-2.078-16.76-1.816-13.419.612-24.854 7.416-29.839 17.755-3.166 6.564-3.097 14.91.179 21.781.001.003.003.006.004.01-13.282 4.877-24.618 15.316-29.931 28.498-7.31 18.135-2.824 40.499 10.908 54.385 9.423 9.528 22.85 14.72 36.208 14.719 2.462 0 4.921-.186 7.354-.544v182.038c0 4.142 3.358 7.5 7.5 7.5s7.5-3.358 7.5-7.5c0 0 .442-192.284.103-193.638h259.745v260.72h-259.85v-31.875c0-4.142-3.358-7.5-7.5-7.5s-7.5 3.358-7.5 7.5v49.924c0 37.283 30.333 67.616 67.616 67.616h154.617c37.283 0 67.616-30.333 67.616-67.616v-55.968h19.094c34.462 0 62.5-28.133 62.5-62.712v-25.279c0-4.142-3.358-7.5-7.5-7.5s-7.5 3.358-7.5 7.5v25.279c0 26.309-21.309 47.712-47.5 47.712h-19.094v-180.664h19.094c26.191 0 47.5 21.404 47.5 47.713v25.101c-.001 4.142 3.357 7.5 7.499 7.5zm-141.709 223.934h-154.617c-29.012 0-52.616-23.604-52.616-52.616v-3.045h259.849v3.045c0 29.012-23.604 52.616-52.616 52.616z"/><path d="m269.298 341.43v-106.259c0-13.843-11.262-25.105-25.105-25.105s-25.105 11.262-25.105 25.105v106.259c0 13.843 11.262 25.105 25.105 25.105s25.105-11.262 25.105-25.105zm-35.21 0v-106.259c0-5.572 4.533-10.105 10.105-10.105s10.105 4.533 10.105 10.105v106.259c0 5.572-4.533 10.105-10.105 10.105s-10.105-4.533-10.105-10.105z"/><path d="m349.298 341.43v-106.259c0-13.843-11.262-25.105-25.105-25.105s-25.105 11.262-25.105 25.105v106.259c0 13.843 11.262 25.105 25.105 25.105s25.105-11.262 25.105-25.105zm-35.21 0v-106.259c0-5.572 4.533-10.105 10.105-10.105s10.105 4.533 10.105 10.105v106.259c0 5.572-4.533 10.105-10.105 10.105s-10.105-4.533-10.105-10.105z"/><path d="m189.298 341.43v-106.259c0-13.843-11.262-25.105-25.105-25.105s-25.105 11.262-25.105 25.105v106.259c0 13.843 11.262 25.105 25.105 25.105s25.105-11.262 25.105-25.105zm-35.21 0v-106.259c0-5.572 4.533-10.105 10.105-10.105s10.105 4.533 10.105 10.105v106.259c0 5.572-4.533 10.105-10.105 10.105s-10.105-4.533-10.105-10.105z"/></g></svg>