<?xml version="1.0" encoding="UTF-8"?>
<svg xmlns="http://www.w3.org/2000/svg" viewBox="0 0 64 64" width="512" height="512"><g id="outline"><rect x="50" y="24" width="4" height="2"/><path d="M38,20a2,2,0,0,1-2-2H34a4,4,0,0,0,8,0H40A2,2,0,0,1,38,20Z"/><path d="M5.293,35.956,11,34.2v2.98L4.716,39.041l.568,1.918L11,39.269V47a5.006,5.006,0,0,0,5,5c3.162,0,8.571-1.169,11-1.733V61a1,1,0,0,0,1,1H59a1,1,0,0,0,1-1V47a5.006,5.006,0,0,0-5-5H28a1.752,1.752,0,0,0-.2.02L19,43.78V40.414l3.707-3.707a3.1,3.1,0,0,0,.711-1.117l8.867-2.632-.233-.782a2.981,2.981,0,0,0-.989-4.972l-.357-1.16L18.319,29.857a3.937,3.937,0,0,0-6.072-.759A4.02,4.02,0,0,0,11,32v.111L4.707,34.044ZM53,44h2a3,3,0,0,1,3,3V60H53ZM40.829,44a3,3,0,0,1-5.658,0ZM29,44h3.829A3.006,3.006,0,0,1,30,46a2.83,2.83,0,0,1-1-.183Zm0,3.885A4.851,4.851,0,0,0,30,48a4.982,4.982,0,0,0,4-2.031A4.983,4.983,0,0,0,42.9,44H51V60H29ZM30,29a1,1,0,1,1-1,1A1,1,0,0,1,30,29Zm-2.892.244a2.908,2.908,0,0,0,.825,2.92L23.442,33.5a3.085,3.085,0,0,0-.75-1.217l-.024-.023a3.12,3.12,0,0,0-2.657-.828Zm-7.929,2.441c-.065.03-.133.054-.2.089a.251.251,0,0,0,0-.027ZM13,32a2,2,0,0,1,2.109-2A2.119,2.119,0,0,1,17,32.17V34a1,1,0,0,0,1.707.707l1-1a1.137,1.137,0,0,1,1.557-.025l.016.015a1.119,1.119,0,0,1,.013,1.6l-4,4A1,1,0,0,0,17,40v5a1,1,0,0,0,1.2.98L27,44.22v3.992C24.934,48.7,19.128,50,16,50a3,3,0,0,1-3-3Z"/><path d="M60,10a4,4,0,0,0-4.126-4A3.99,3.99,0,0,0,48.9,4.484a4.02,4.02,0,0,0-3.315-.222A3.986,3.986,0,0,0,38.8,3.6a3.057,3.057,0,0,0-2.5-.519,2.984,2.984,0,0,0-4.77.226A3.925,3.925,0,0,0,30,3a4,4,0,0,0-.512,7.967L30,15.062V25a1,1,0,0,0,1,1h9v8H31a1,1,0,0,0-1,1v4a1,1,0,0,0,1,1H51a1,1,0,0,0,1-1V30h1a5,5,0,0,0,0-10h-.2l3.777-6.042A4.007,4.007,0,0,0,60,10ZM53,22a3,3,0,0,1,0,6H51a1,1,0,0,0-1,1v9H32V36h9a1,1,0,0,0,1-1V25a1,1,0,0,0-1-1H32V16H50v5a1,1,0,0,0,1,1Zm2.152-9.53L52,17.513V15a1,1,0,0,0-1-1H31.883l-.521-4.162a1.041,1.041,0,0,0-.425-.664,1.1,1.1,0,0,0-.788-.191A1.045,1.045,0,0,1,30,9a2,2,0,1,1,1.345-3.467,1,1,0,0,0,1.67-.635.989.989,0,0,1,1.922-.225,1,1,0,0,0,1.5.5A1.01,1.01,0,0,1,38,5.866c0,.028,0,.057,0,.085s-.007.073-.009.093a1.006,1.006,0,0,0,.316.776,1.028,1.028,0,0,0,.8.275A1.047,1.047,0,0,0,40,6a1.993,1.993,0,0,1,3.982-.136,1,1,0,0,0,1.673.669,2.012,2.012,0,0,1,2.805.114,1,1,0,0,0,1.672-.335A1.994,1.994,0,0,1,54,6.971c0,.026-.016.132-.017.157a1,1,0,0,0,1.339,1A1.972,1.972,0,0,1,56,8a2,2,0,0,1,0,4A1,1,0,0,0,55.152,12.47Z"/></g></svg>
