<?xml version="1.0" encoding="UTF-8"?><svg id="Calque_2" xmlns="http://www.w3.org/2000/svg" viewBox="0 0 166 166"><defs><style>.cls-1{fill:#2146c7;}</style></defs><g id="Calque_2-2"><path class="cls-1" d="M83,0C36.5,0-1.08,38.25,.02,85c1.01,42.93,38.05,79.96,80.97,80.98,39.78,.94,73.4-26.12,82.55-62.86,2.54-10.22-5.2-20.12-15.73-20.12h-.62c-7.51,0-13.9,5.19-15.76,12.46-5.69,22.19-26.22,38.42-50.38,37.51-25.91-.98-47.03-22.1-48.01-48.02-1.08-28.5,21.7-51.95,49.96-51.95,19.09,0,35.69,10.7,44.11,26.44,7.71,14.41,22.55,23.56,38.89,23.56h0c0-45.84-37.16-83-83-83Z"/></g></svg>