<svg height="512pt" viewBox="-64 0 511 512" width="512pt" xmlns="http://www.w3.org/2000/svg"><path d="m292.066406 469.59375c7.828125-7.828125 10.964844-18.9375 8.394532-29.714844-2.640626-11.070312-10.738282-19.582031-22.214844-23.347656-5.257813-1.726562-10.847656-1.808594-16.15625-.234375-3.605469 1.066406-6.878906 2.578125-9.789063 4.519531-3.820312-6.738281-10.097656-11.945312-18.035156-14.777344-6.160156-2.195312-12.953125-2.171874-19.125.058594-11.058594 4.003906-18.789063 12.542969-21.210937 23.433594-2.367188 10.625.8125 21.558594 8.503906 29.25 2.101562 2.101562 4.476562 3.886719 7.050781 5.308594-1.855469 3.101562-3.214844 6.578125-4.070313 10.402344-1.308593 5.867187-.773437 11.878906 1.550782 17.378906 4.375 10.351562 12.949218 17.476562 23.523437 19.539062 2.027344.394532 4.0625.589844 6.085938.589844 8.308593 0 16.355469-3.269531 22.347656-9.261719 6.371094-6.371093 9.621094-15.15625 9.203125-23.941406 8.785156.417969 17.570312-2.832031 23.941406-9.203125zm-27.875-6.679688c-3.445312-1.210937-7.175781-.363281-9.746094 2.203126-2.570312 2.570312-3.414062 6.304687-2.207031 9.746093 2.109375 6 .570313 12.777344-3.921875 17.269531-3.917968 3.914063-9.507812 5.621094-14.957031 4.554688-3.285156-.640625-9.292969-2.878906-12.578125-10.65625-1.085938-2.570312-1.34375-5.507812-.726562-8.269531.859374-3.851563 2.535156-7 4.988281-9.355469 2.464843-2.367188 3.449219-5.886719 2.566406-9.179688-.886719-3.300781-3.503906-5.859374-6.832031-6.679687-2.921875-.71875-5.597656-2.230469-7.742188-4.375-4.042968-4.039063-5.710937-9.792969-4.46875-15.382813.757813-3.394531 3.28125-9.542968 11.679688-12.585937 1.464844-.53125 3.007812-.796875 4.546875-.796875 1.503906 0 3.003906.253906 4.433593.761719 6.074219 2.167969 10.214844 6.472656 11.65625 12.121093.875 3.4375 3.566407 6.089844 7.015626 6.921876 3.429687.824218 7.003906-.304688 9.332031-2.949219 2.28125-2.589844 5.347656-4.46875 9.113281-5.582031 2.34375-.695313 4.90625-.65625 7.226562.105468 6.410157 2.101563 10.894532 6.6875 12.300782 12.574219 1.351562 5.667969-.296875 11.511719-4.414063 15.628906-4.488281 4.492188-11.265625 6.03125-17.265625 3.925781zm0 0"/><path d="m99.421875 98.164062c-1.03125 1.03125-1.957031 2.140626-2.773437 3.324219-1.804688-.855469-3.753907-1.511719-5.835938-1.964843-4.285156-.9375-8.65625-.585938-12.652344 1.011718-8.050781 3.21875-13.59375 9.75-15.203125 17.914063l14.71875 2.902343c.355469-1.8125 1.617188-5.113281 6.054688-6.890624 1.183593-.472657 2.558593-.570313 3.878906-.285157 2.304687.503907 4.066406 1.453125 5.386719 2.902344 2.15625 2.371094 5.417968 3.328125 8.511718 2.5s5.4375-3.289063 6.121094-6.421875c.359375-1.660156 1.191406-3.175781 2.398438-4.382812 1.789062-1.789063 4.257812-2.742188 6.796875-2.597657 2.5625.140625 4.871093 1.339844 6.5 3.375l11.707031-9.378906c-4.269531-5.332031-10.605469-8.601563-17.386719-8.972656-6.777343-.367188-13.421875 2.164062-18.222656 6.964843zm0 0"/><path d="m74.265625 88.722656 6.765625-.691406-.03125-6.800781-.003906-.300781c0-36.355469 29.578125-65.929688 65.929687-65.929688 27.46875 0 52.324219 17.300781 61.851563 43.050781l3.085937 8.335938 7.699219-4.445313c3.316406-1.914062 7.09375-2.925781 10.933594-2.925781 12.050781 0 21.859375 9.777344 21.914062 21.816406l-.003906 7.269531 7.019531.449219c23.203125 1.492188 43.292969 17.457031 49.988281 39.730469l14.367188-4.316406c-7.867188-26.167969-30.3125-45.472656-56.96875-49.671875-3.136719-17.195313-18.226562-30.277344-36.316406-30.277344-3.648438 0-7.269532.542969-10.734375 1.597656-13.410157-27.574219-41.761719-45.613281-72.835938-45.613281-42.550781 0-77.539062 33.011719-80.695312 74.769531-25.660157 5.03125-46.550781 23.765625-54.195313 49.195313l14.367188 4.316406c6.527344-21.726562 25.316406-37.25 47.863281-39.558594zm0 0"/><path d="m181.289062 497h-26.761718l-8.785156-324.046875c0-.007813 0-.015625 0-.023437l-.027344-.960938c-.164063-6.042969 2.066406-11.753906 6.28125-16.085938 4.21875-4.332031 9.867187-6.714843 15.910156-6.714843s11.695312 2.382812 15.910156 6.714843c4.214844 4.332032 6.445313 10.042969 6.28125 16.082032l-6.386718 231.328125 14.992187.414062 6.363281-230.347656c.367188-13.566406 11.285156-24.195313 24.859375-24.195313h.539063c7.054687 0 13.5625 2.863282 18.332031 8.0625 4.765625 5.199219 7.054687 11.929688 6.445313 18.957032l-19.089844 219.605468 14.941406 1.296876 19.578125-225.207032c1.125-12.949218 11.777344-22.710937 24.773437-22.710937 7.230469 0 14.089844 3.136719 18.816407 8.605469 4.730469 5.472656 6.835937 12.714843 5.789062 19.867187l-27.671875 188.8125 14.839844 2.175781 27.675781-188.8125c1.679688-11.46875-1.703125-23.078125-9.28125-31.847656s-18.574219-13.800781-30.167969-13.800781c-13.4375 0-25.3125 6.511719-32.53125 16.703125-.9375-1.316406-1.960937-2.578125-3.058593-3.777344-7.53125-8.214844-18.242188-12.925781-29.390625-12.925781h-.539063c-12.988281 0-24.460937 6.070312-31.722656 15.59375-1.089844-1.519531-2.304687-2.972657-3.636719-4.339844-7.0625-7.257813-16.53125-11.253906-26.65625-11.253906-10.128906 0-19.597656 3.996093-26.660156 11.253906-1.332031 1.367187-2.542969 2.820313-3.636719 4.339844-7.261719-9.519531-18.734375-15.59375-31.722656-15.59375h-.542969c-11.140625 0-21.851562 4.710937-29.382812 12.925781-1.101563 1.199219-2.125 2.464844-3.058594 3.777344-7.222656-10.191406-19.097656-16.703125-32.535156-16.703125-11.59375 0-22.585938 5.03125-30.167969 13.800781-7.578125 8.769531-10.960937 20.378906-9.28125 31.847656l48.6875 332.179688h146.277344l1.1875-43.785156-14.992188-.40625zm-118.71875 0-46.804687-319.359375c-1.050781-7.152344 1.0625-14.394531 5.789063-19.867187 4.726562-5.46875 11.582031-8.605469 18.816406-8.605469 12.996094 0 23.648437 9.761719 24.773437 22.710937l28.261719 325.121094zm76.949219 0h-31.054687l-27.890625-320.816406c-.609375-7.023438 1.679687-13.757813 6.445312-18.957032 4.765625-5.195312 11.277344-8.0625 18.328125-8.0625h.542969c13.5625 0 24.476563 10.617188 24.859375 24.171876zm0 0"/><path d="m377.894531 452.085938c-3.125-6.179688-7.996093-11.191407-14.085937-14.5-5.136719-2.792969-10.417969-4.539063-15.769532-5.21875 3.644532-10.203126 2.976563-21.585938-2.066406-32.210938-3.515625-7.414062-9.558594-13.421875-17.019531-16.914062-23.871094-11.183594-45.8125.816406-54.332031 17.789062l13.40625 6.730469c5.34375-10.648438 19.273437-18.097657 34.5625-10.9375 4.3125 2.019531 7.804687 5.484375 9.832031 9.757812 4.105469 8.65625 3.910156 17.5625-.554687 25.082031-1.945313 3.277344-1.917969 7.335938.070312 10.589844 1.976562 3.226563 5.542969 5.082032 9.3125 4.839844 5.132812-.324219 10.316406.910156 15.398438 3.671875 3.351562 1.820313 6.144531 4.695313 7.859374 8.089844 4.519532 8.9375 4.386719 18.492187-.363281 26.222656-4.589843 7.464844-12.550781 11.921875-21.300781 11.921875-9.542969 0-18.386719-5.566406-22.523438-14.183594-1.6875-3.519531-5.148437-5.703125-9.035156-5.703125-3.882812 0-7.347656 2.183594-9.035156 5.703125-4.136719 8.613282-12.976562 14.183594-22.523438 14.183594-1.527343 0-3.054687-.140625-4.539062-.414062l-2.710938 14.753906c2.378907.4375 4.816407.65625 7.25.65625 12.40625 0 24.070313-5.871094 31.558594-15.460938 7.488282 9.589844 19.152344 15.460938 31.558594 15.460938 14 0 26.738281-7.125 34.078125-19.0625 7.542969-12.269532 7.894531-27.160156.972656-40.847656zm0 0"/><path d="m105.996094 80.839844-15-.03125c.015625-5.8125.921875-11.546875 2.695312-17.042969l14.273438 4.609375c-1.296875 4.015625-1.957032 8.207031-1.96875 12.464844zm79.335937-14.113282c-5.917969-15.984374-21.347656-26.726562-38.40625-26.726562-7.363281 0-14.589843 1.988281-20.894531 5.746094l-7.683594-12.878906c8.625-5.144532 18.507813-7.867188 28.578125-7.867188 23.304688 0 44.390625 14.675781 52.472657 36.519531zm-73.957031-6.058593-13.019531-7.453125c2.871093-5.015625 6.492187-9.546875 10.757812-13.464844l10.148438 11.042969c-3.128907 2.875-5.78125 6.199219-7.886719 9.875zm0 0"/><path d="m281.257812 373.359375-14.839843-2.175781 17.386719-118.628906 14.839843 2.175781zm18.835938-128.523437-14.839844-2.175782 2.175782-14.839844 14.839843 2.175782zm3.628906-24.734376-14.84375-2.175781 2.175782-14.839843 14.839843 2.171874zm0 0"/></svg>