<?xml version="1.0" encoding="utf-8"?>
<!-- Generator: Adobe Illustrator 27.1.0, SVG Export Plug-In . SVG Version: 6.00 Build 0)  -->
<svg version="1.1" id="svg3108" xmlns:svg="http://www.w3.org/2000/svg"
	 xmlns="http://www.w3.org/2000/svg" xmlns:xlink="http://www.w3.org/1999/xlink" x="0px" y="0px" viewBox="0 0 682.7 682.7"
	 style="enable-background:new 0 0 682.7 682.7;" xml:space="preserve">
<style type="text/css">
	.st0{clip-path:url(#SVGID_00000067211496941064242930000006508678036284533917_);}
</style>
<g id="g3114" transform="matrix(1.3333333,0,0,-1.3333333,0,682.66667)">
	<g id="g3116">
		<g>
			<defs>
				<rect id="SVGID_1_" x="-85.3" y="-85.3" width="682.7" height="682.7"/>
			</defs>
			<clipPath id="SVGID_00000106834196900124809970000018283086661768521104_">
				<use xlink:href="#SVGID_1_"  style="overflow:visible;"/>
			</clipPath>
			<g id="g3118" style="clip-path:url(#SVGID_00000106834196900124809970000018283086661768521104_);">
				<g id="g3124" transform="translate(88.3965,261.9111)">
					<path d="M-64-213.1c-2.7,0-5.3,1.5-6.6,4c-3.1,5.9-5.5,12.1-7.1,18.6c-14.6,58.3-14.2,119.9,1.3,178
						c15.9,59.9,47.7,114.9,91.8,158.9c44.1,44.1,99,75.8,158.9,91.7c58.1,15.5,119.7,15.9,178,1.3c6.4-1.6,12.7-4,18.6-7.1
						c3-1.6,4.6-5,3.8-8.3c-0.8-3.3-3.6-5.7-7-5.8c-68.5-2.5-138.3-24.4-201.8-63.2c-3.5-2.1-8-1.1-10.2,2.3
						c-0.1,0.1-0.2,0.3-0.2,0.4c-3.7,5.4-11,6.8-16.4,3.1c-27-18.1-52.5-39-75.7-62.3C39.9,75.2,19,49.7,0.9,22.8
						c-3.2-4.7-2.5-11,1.5-15c0.5-0.5,1.1-1,1.7-1.4c0.1-0.1,0.3-0.2,0.4-0.2C7.8,3.9,8.9-0.7,6.7-4.1
						C-32.1-67.6-54-137.4-56.5-205.9c-0.1-3.4-2.5-6.3-5.8-7C-62.8-213.1-63.4-213.1-64-213.1z M265.7,235.1
						c-29.5,0-59-3.8-87.6-11.4c-57.3-15.3-110-45.7-152.2-87.9C-16.3,93.6-46.7,41-62-16.4c-12.9-48.5-14.9-99.4-5.9-148.7
						C-60-109.2-40.1-53.5-9.3-1.7c-8.1,9.1-9.1,22.6-2.2,32.8c18.6,27.8,40.2,54,64.2,78c24,24,50.2,45.5,78,64.2
						c10.4,6.9,23.9,5.7,32.8-2.2c51.8,30.8,107.5,50.7,163.4,58.5C306.6,233.2,286.1,235.1,265.7,235.1z M-3.5-6.6L-3.5-6.6
						L-3.5-6.6z M155.5,157.5C155.5,157.5,155.5,157.5,155.5,157.5C155.5,157.5,155.5,157.5,155.5,157.5z"/>
				</g>
				<g id="g3128" transform="translate(85.455,264.3261)">
					<path d="M13.7-13.2c-5.1,0-10.3,1.5-14.9,4.5c-1.5,1-2.8,2.1-4.1,3.3c-9,9-10.4,23.3-3.3,34c18.6,27.8,40.2,54.1,64.2,78
						c23.9,23.9,50.2,45.5,78,64.2c6,4,13.1,5.4,20.2,4c7-1.4,13.1-5.5,17.1-11.4c4-6,5.4-13.1,4-20.2c-1.4-7.1-5.5-13.1-11.4-17.1
						c-24.9-16.7-48.4-36-69.9-57.5c-21.5-21.5-40.8-45-57.5-69.9C30.9-9,22.4-13.2,13.7-13.2z M148.5,160.4c-2.3,0-4.6-0.7-6.6-2
						c-27-18.1-52.5-39-75.7-62.3C42.9,72.8,21.9,47.3,3.8,20.3c-3.2-4.7-2.5-11,1.5-15c0.5-0.5,1.2-1,1.8-1.5
						C12.6,0.2,20,1.6,23.6,7.1c17.2,25.7,37.2,50,59.3,72.2c22.2,22.2,46.4,42.1,72.2,59.3c2.6,1.8,4.4,4.5,5.1,7.6
						c0.6,3.1,0,6.3-1.8,8.9c-1.8,2.6-4.5,4.4-7.6,5.1C150,160.3,149.3,160.4,148.5,160.4z"/>
				</g>
				<g id="g3132" transform="translate(8.8593,188.6513)">
					<path d="M179.8-187.3c-2,0-3.9,0.8-5.3,2.2L-5.3-5.3c-1.6,1.6-2.4,3.8-2.2,6c2.4,27.4,8,54.5,16.7,80.5
						c0.8,2.5,2.9,4.3,5.4,4.9c2.5,0.6,5.2-0.2,7-2l242.3-242.3c1.8-1.8,2.6-4.5,2-7c-0.6-2.5-2.5-4.6-4.9-5.4
						c-26-8.6-53.1-14.3-80.5-16.7C180.2-187.3,180-187.3,179.8-187.3z M7.8,2.8L182.6-172c21,2.1,41.7,6.1,61.9,12L19.8,64.7
						C13.9,44.6,9.9,23.8,7.8,2.8z"/>
				</g>
				<g id="g3136" transform="translate(140.4101,371.5898)">
					<path d="M37.5-45c-1.9,0-3.8,0.7-5.3,2.2L-5.3-5.3c-2.9,2.9-2.9,7.7,0,10.6c2.9,2.9,7.7,2.9,10.6,0l37.5-37.5
						c2.9-2.9,2.9-7.7,0-10.6C41.3-44.3,39.4-45,37.5-45z"/>
				</g>
				<g id="g3140" transform="translate(170.956,398.3662)">
					<path d="M34.5-47.8c-2.1,0-4.2,0.9-5.7,2.6L-5.7-4.9C-8.4-1.7-8,3-4.9,5.7C-1.7,8.4,3,8,5.7,4.9l34.5-40.3
						c2.7-3.1,2.3-7.9-0.8-10.6C38-47.2,36.2-47.8,34.5-47.8z"/>
				</g>
				<g id="g3144" transform="translate(202.2666,423.8613)">
					<path d="M31.4-50.3c-2.3,0-4.6,1.1-6.1,3.1L-6-4.4C-8.5-1.1-7.8,3.6-4.4,6c3.3,2.4,8,1.7,10.5-1.6l31.4-42.8
						c2.4-3.3,1.7-8-1.6-10.5C34.5-49.8,32.9-50.3,31.4-50.3z"/>
				</g>
				<g id="g3148" transform="translate(113.6338,341.0449)">
					<path d="M40.3-42c-1.7,0-3.5,0.6-4.9,1.8L-4.9-5.7C-8-3-8.4,1.7-5.7,4.9C-3,8,1.7,8.4,4.9,5.7l40.3-34.5
						c3.1-2.7,3.5-7.4,0.8-10.6C44.5-41.1,42.4-42,40.3-42z"/>
				</g>
				<g id="g3152" transform="translate(88.1386,309.7334)">
					<path d="M42.8-38.9c-1.5,0-3.1,0.5-4.4,1.5L-4.4-6C-7.8-3.6-8.5,1.1-6,4.4C-3.6,7.8,1.1,8.5,4.4,6l42.8-31.4
						c3.3-2.4,4.1-7.1,1.6-10.5C47.4-37.8,45.1-38.9,42.8-38.9z"/>
				</g>
				<g id="g3156" transform="translate(411.2715,117.5556)">
					<path d="M-253.4-117.6c-28.9,0-57.9,3.5-86.5,10.7c-29.9,7.5-53.2,30.8-60.7,60.7c-14.6,58.3-14.2,119.9,1.3,178
						c15.9,59.9,47.7,114.9,91.8,158.9c44.1,44.1,99,75.8,158.9,91.8c58.1,15.5,119.7,15.9,178,1.3c29.9-7.5,53.2-30.8,60.7-60.7
						c14.2-56.4,14.2-116.1,0.2-172.5C75.7,92.6,46.5,38.7,5.5-5.1c-2.8-3-7.6-3.2-10.6-0.4c-3,2.8-3.2,7.6-0.4,10.6
						c39.2,42,67.3,93.5,81.1,149.1c13.5,54,13.4,111.2-0.2,165.2C69.3,344,50.2,363,25.7,369.2c-55.9,14-114.8,13.6-170.5-1.2
						c-57.3-15.3-110-45.7-152.2-87.9c-42.2-42.2-72.6-94.8-87.9-152.2c-14.8-55.7-15.2-114.6-1.2-170.5
						c6.2-24.5,25.2-43.6,49.8-49.8c108.1-27.1,222.6,0.4,306.2,73.6c3.1,2.7,7.9,2.4,10.6-0.7c2.7-3.1,2.4-7.9-0.7-10.6
						C-85.3-87.1-168.5-117.6-253.4-117.6z"/>
				</g>
				<g id="g3160" transform="translate(414.1054,412.3828)">
					<path d="M72.7-175.4c-2,0-3.9,0.8-5.3,2.2L-174.9,69.1c-1.8,1.8-2.6,4.5-2,7c0.6,2.5,2.5,4.6,4.9,5.4
						c26,8.6,53.1,14.3,80.5,16.7c2.2,0.2,4.4-0.6,6-2.2L5.3,5.3c2.9-2.9,2.9-7.7,0-10.6c-2.9-2.9-7.7-2.9-10.6,0L-93.6,83
						c-21-2.1-41.7-6.1-61.9-12L69.2-153.8c5.9,20.2,9.9,41,12,61.9L19.4-30.1c-2.9,2.9-2.9,7.7,0,10.6c2.9,2.9,7.7,2.9,10.6,0
						l64.3-64.3c1.6-1.6,2.4-3.8,2.2-6c-2.4-27.4-8-54.5-16.7-80.5c-0.8-2.5-2.9-4.3-5.4-4.9C73.9-175.3,73.3-175.4,72.7-175.4z"/>
				</g>
			</g>
		</g>
	</g>
</g>
</svg>
